Coordinates
version=1
nRows=4
nColumns=63
inDegrees=yes

Units are S.I. units (second, meters, Newtons, ...)
If the header above contains a line with 'inDegrees', this indicates whether rotational values are in degrees (yes) or radians (no).

endheader
time	pelvis_tilt	pelvis_list	pelvis_rotation	pelvis_tx	pelvis_ty	pelvis_tz	hip_flexion_r	hip_adduction_r	hip_rotation_r	knee_angle_r	knee_angle_r_beta	ankle_angle_r	subtalar_angle_r	mtp_angle_r	hip_flexion_l	hip_adduction_l	hip_rotation_l	knee_angle_l	knee_angle_l_beta	ankle_angle_l	subtalar_angle_l	mtp_angle_l	L5_S1_Flex_Ext	L5_S1_Lat_Bending	L5_S1_axial_rotation	L4_L5_Flex_Ext	L4_L5_Lat_Bending	L4_L5_axial_rotation	L3_L4_Flex_Ext	L3_L4_Lat_Bending	L3_L4_axial_rotation	L2_L3_Flex_Ext	L2_L3_Lat_Bending	L2_L3_axial_rotation	L1_L2_Flex_Ext	L1_L2_Lat_Bending	L1_L2_axial_rotation	L1_T12_Flex_Ext	L1_T12_Lat_Bending	L1_T12_axial_rotation	Abs_r3	Abs_r2	Abs_r1	Abs_t1	Abs_t2	neck_flexion	neck_bending	neck_rotation	arm_flex_r	arm_add_r	arm_rot_r	elbow_flex_r	pro_sup_r	wrist_flex_r	wrist_dev_r	arm_flex_l	arm_add_l	arm_rot_l	elbow_flex_l	pro_sup_l	wrist_flex_l	wrist_dev_l
      1.55000000	      0.14396413	    -19.39234431	     96.79509396	      0.26167893	      0.96353679	      0.56835025	     18.58001725	      1.37390619	     -7.99983618	     12.57438424	      0.21946441	     30.63130776	      1.66042414	      0.00000000	     23.26692498	     -1.17623749	      0.90783830	     20.05912303	      0.35009774	     31.89848613	     -3.82536360	      0.00000000	     -0.61237612	     -1.36182502	      2.33785460	     -1.13724369	     -1.81122728	      2.48397051	     -1.00607273	     -3.31114136	      2.48397051	     -0.69988467	     -3.31114136	      2.04562278	     -0.56865247	     -2.77703358	      1.89950686	     -0.34991172	     -2.10946696	      1.75339095	     -4.37414139	    -15.40523700	     13.00244594	      0.00000000	      0.00000000	      3.80794401	      3.14756995	     -5.02288710	      4.27416055	     -0.43234780	     40.40882498	     36.73294433	     54.12860417	     -0.39410433	      0.80265836	      6.77829970	     -9.57644869	     41.91385134	     49.38963546	     87.56632410	      8.58859925	      3.35984936
      1.56666667	      0.32529642	    -19.56924906	     97.59059659	      0.26095565	      0.96235727	      0.56968102	     19.02851267	      1.19713319	     -9.23609747	     13.04405302	      0.22766167	     31.26978151	      2.46236900	      0.00000000	     23.77647693	     -0.89823752	      2.45006329	     20.43224146	      0.35660989	     31.61082436	     -5.02369668	      0.00000000	     -0.60521463	     -1.34677411	      2.25820441	     -1.12394409	     -1.79120957	      2.39934218	     -0.99430712	     -3.27454658	      2.39934218	     -0.69169980	     -3.27454658	      1.97592886	     -0.56200231	     -2.74634177	      1.83479108	     -0.34581964	     -2.08615310	      1.69365331	     -4.32298758	    -15.23497812	     12.55945546	      0.00000000	      0.00000000	      3.76380307	      3.24431560	     -5.07977077	      4.46596857	     -0.19571813	     38.88370530	     36.35186696	     59.25128296	      0.29720672	      1.03303972	      6.62238706	     -9.43746542	     41.39637612	     48.64260236	     87.44309799	      7.45002457	      1.41121267
      1.58333333	      0.53152501	    -19.75757265	     98.38167462	      0.26037935	      0.96115089	      0.57122818	     19.51637866	      1.09734017	     -9.91677718	     13.51723645	      0.23592028	     31.66231772	      2.54999412	      0.00000000	     24.31906648	     -0.71644571	      3.55274625	     20.85703938	      0.36402401	     31.36319613	     -5.50225797	      0.00000000	     -0.60751901	     -1.33268667	      2.18411756	     -1.12822356	     -1.77247328	      2.32062491	     -0.99809298	     -3.24029438	      2.32062491	     -0.69433348	     -3.24029438	      1.91110287	     -0.56414215	     -2.71761467	      1.77459552	     -0.34713636	     -2.06433166	      1.63808817	     -4.33944755	    -15.07561820	     12.14740666	      0.00000000	      0.00000000	      3.90198222	      3.35693873	     -5.32475100	      4.89391162	     -0.01397888	     39.05398164	     35.75578801	     60.53199228	      1.12707278	      0.21077288	      6.34795771	     -9.52270590	     40.80898542	     47.81652226	     87.43130401	      5.94431541	     -1.80521354
      1.60000000	      0.89875853	    -19.99424798	     99.43500704	      0.25950947	      0.95988609	      0.57297895	     20.00907848	      1.06888999	    -10.82968129	     13.84766119	      0.24168728	     31.87757230	      2.55744425	      0.00000000	     24.96868348	     -0.52227838	      5.11258941	     21.29785865	      0.37171776	     30.93736249	     -6.29167493	      0.00000000	     -0.60825481	     -1.30464943	      2.08847663	     -1.12959002	     -1.73518374	      2.21900642	     -0.99930183	     -3.17212462	      2.21900642	     -0.69517443	     -3.17212462	      1.82741705	     -0.56482542	     -2.66044111	      1.69688727	     -0.34755680	     -2.02090196	      1.56635748	     -4.34470331	    -14.75845526	     11.61548050	      0.00000000	      0.00000000	      4.27230139	      3.42266243	     -5.89939858	      5.01178912	      0.21691762	     38.68682897	     35.32247025	     61.07087155	      2.25849235	     -0.83649280	      6.04685189	     -9.64788353	     40.23340460	     46.77366955	     87.30225107	      3.86592609	     -5.90580081
